# xmcd CD database file
#
# Track frame offsets:
#	150
#	18855
#	38671
#	60643
#	78156
#	103097
#	128707
#	152401
#	177555
#	198343
#	213121
#	230408
#
# Disc length: 3381 seconds
#
# Revision: 0
# Processed by: cddbd v1.5.1PL2 Copyright (c) Steve Scherf et al.
# Submitted via: CDex 1.51
#
DISCID=8e0d330c
DTITLE=Mike Levy - Squeaky Wheels
DYEAR=2005
DGENRE=Jazz
TTITLE0=Baby I Love You
TTITLE1=Amore Mio, Sole Mio
TTITLE2=Squeaky Wheels
TTITLE3=Upa, Neguinho
TTITLE4=My Fine Woman
TTITLE5=Butterfly
TTITLE6=Changes
TTITLE7=BumBum
TTITLE8=Lapinha
TTITLE9=Busted
TTITLE10=So Tinha De Ser Com Voce
TTITLE11=Mercy, Mercy, Mercy
EXTD=YEAR: 2005
EXTT0=
EXTT1=
EXTT2=
EXTT3=
EXTT4=
EXTT5=
EXTT6=
EXTT7=
EXTT8=
EXTT9=
EXTT10=
EXTT11=
PLAYORDER=
